<svg width="227" height="32" viewBox="0 0 227 32" fill="none" xmlns="http://www.w3.org/2000/svg">
<path fill-rule="evenodd" clip-rule="evenodd" d="M8.67791 0.223401C5.18833 0.991699 2.511 3.15073 0.988909 6.42411C-0.65129 9.95125 -0.224778 14.2299 2.0721 17.291C2.80325 18.2656 4.42366 19.7714 5.15314 20.1543L5.69474 20.4385L5.77146 21.866C6.02852 26.6492 9.57957 30.7283 14.4015 31.7799C15.8997 32.1064 18.4917 32.0147 19.8543 31.5868C24.3606 30.1717 27.4311 26.3601 27.7348 21.8041L27.8257 20.4406L28.4939 20.024C30.6832 18.659 32.4572 16.1993 33.1669 13.5445C33.4777 12.3821 33.5226 9.48063 33.2455 8.48402C32.1662 4.60532 29.4173 1.689 25.669 0.446657C24.9851 0.219978 24.1593 0.0970383 22.9466 0.0416709C20.9566 -0.0492687 19.4623 0.235755 17.6772 1.04662L16.6769 1.50102L15.5192 0.973987C13.4697 0.040778 10.8253 -0.249306 8.67791 0.223401ZM13.5568 1.77846C13.8957 1.8685 14.4476 2.06318 14.783 2.21113L15.3931 2.48022L14.9445 2.90366C14.3544 3.46091 14.2505 3.82199 14.5779 4.17846C14.97 4.60547 15.3333 4.53105 16.0543 3.87617L16.703 3.28677L17.4175 3.86873C18.1177 4.43892 18.3659 4.48402 18.8348 4.12636C19.1512 3.8851 19.0473 3.424 18.5705 2.95412C18.3213 2.70854 18.1174 2.48409 18.1174 2.45537C18.1174 2.36368 19.7727 1.78887 20.4992 1.62858C21.4212 1.42482 23.42 1.43226 24.4607 1.64316C24.9176 1.73574 25.9293 2.11319 26.7093 2.48186C32.4092 5.1776 33.7991 12.7272 29.4392 17.311C28.879 17.8999 28.2167 18.4984 27.9675 18.641L27.5144 18.9001L27.414 18.3722C27.2864 17.7017 26.8537 17.2605 26.4306 17.3694C25.9141 17.5025 25.7717 17.9347 25.9724 18.7591C26.0694 19.1577 26.1106 19.5449 26.0638 19.6193C26.0171 19.6938 25.6685 19.8404 25.2891 19.9451C24.4831 20.1676 24.1972 20.5503 24.442 21.0795C24.6214 21.4677 25.1873 21.5494 25.8857 21.2877C26.2529 21.1501 26.2731 21.1681 26.2731 21.6324C26.2731 23.3109 25.1956 25.9386 23.9285 27.3511C22.0935 29.3962 19.5598 30.5226 16.7882 30.5252C15.0665 30.5268 14.0753 30.3114 12.6047 29.6162C9.5187 28.1572 7.59562 25.4086 7.18436 21.8692L7.10537 21.1895L7.83062 21.3358C8.77034 21.5256 9.05549 21.4114 9.05549 20.8455C9.05549 20.3489 8.75131 20.0951 7.79906 19.7973C7.36681 19.6621 7.2495 19.5459 7.2495 19.4977C7.2495 19.3488 7.37028 18.8095 7.41906 18.4589C7.49458 17.938 7.68829 17.4637 7.19252 17.2682C6.81494 17.1194 6.36185 17.4915 6.1353 18.0868C6.04915 18.3132 5.89199 18.8233 5.89199 18.8233C5.89022 18.8279 5.41881 18.6005 4.96753 18.251C1.44382 15.5219 0.431906 10.2324 2.6717 6.25146C3.73541 4.36093 5.99711 2.53782 8.11305 1.86523C9.63847 1.38016 11.9192 1.34385 13.5568 1.77846ZM13.3964 4.87189C13.0139 4.96164 11.8681 7.3472 11.9858 7.80889C12.0843 8.19557 12.5212 8.40603 12.9445 8.27073C13.2522 8.1725 14.394 5.80763 14.3176 5.4269C14.2517 5.09931 13.7402 4.79107 13.3964 4.87189ZM19.3593 4.99483C19.1995 5.10507 18.9355 5.49924 19.4554 6.45924C19.693 6.89786 19.9604 7.46359 20.0499 7.71632C20.3506 8.56633 21.4402 8.48298 21.4399 7.61005C21.4398 7.18154 20.7884 5.70195 20.4078 5.28685C20.0666 4.91475 19.532 4.87565 19.3593 4.99483ZM11.6428 9.42794C11.5502 9.53779 11.465 10.0431 11.4534 10.5506L11.4323 11.4734L10.7347 11.9344C9.63333 12.662 9.44183 13.0109 9.89688 13.4595C10.2165 13.7743 10.6593 13.7539 11.1622 13.401L11.5788 13.1088L11.987 14.3312C12.4788 15.8041 13.4352 17.362 14.5491 18.5043L15.3715 19.3479L14.862 19.5861C14.2822 19.8574 14.0987 20.2416 14.3386 20.683C14.5588 21.0886 15.0908 21.0697 15.9824 20.6245L16.7069 20.2627L17.5587 20.6861C18.4683 21.1383 18.933 21.1337 19.1847 20.6701C19.3883 20.2951 19.142 19.8637 18.5531 19.5635L18.0916 19.3283L18.9191 18.4734C19.3741 18.0032 19.9937 17.2377 20.2957 16.7725C20.913 15.8215 21.7422 13.8859 21.7422 13.3959V13.0737L22.2508 13.3834C22.8465 13.7463 23.2943 13.7791 23.5476 13.4783C23.891 13.0706 23.6577 12.6009 22.8426 12.0588L22.0551 11.5352L22.0497 10.6695C22.0427 9.57023 21.8622 9.2282 21.2891 9.2282C20.7697 9.2282 20.5339 9.5674 20.5339 10.3147V10.8254L19.5144 10.5357C17.7229 10.0269 14.7885 10.1456 13.096 10.7956C12.8693 10.8827 12.8355 10.8118 12.8562 10.293C12.8695 9.96078 12.7929 9.58526 12.6863 9.4586C12.4477 9.17522 11.87 9.15825 11.6428 9.42794ZM18.5708 11.8199C19.1109 11.9327 19.7661 12.1158 20.0269 12.2267L20.5011 12.4282L20.2894 13.2468C19.9121 14.7057 19.0679 16.1768 17.9304 17.3568C17.3476 17.9614 16.7953 18.4561 16.703 18.4561C16.3834 18.4561 14.5659 16.4334 14.091 15.5492C13.8285 15.0605 13.4629 14.1678 13.2783 13.5653C12.8962 12.3176 12.8814 12.3453 14.115 11.9951C15.6224 11.567 17.0853 11.5096 18.5708 11.8199ZM8.47628 13.9194C8.09871 14.0682 7.04149 15.4822 7.04149 16.0775C7.04149 16.5985 7.38448 16.8189 7.78063 16.8189C8.04615 16.8189 8.25487 16.6467 8.54742 16.1863C8.76838 15.8384 9.1091 15.3645 9.30439 15.133C9.73105 14.6277 9.75476 14.2708 9.38338 13.9396C9.08041 13.6695 8.47628 13.9194 8.47628 13.9194ZM24.0939 13.9271C23.9031 14.1151 23.8059 14.5844 24.624 15.7398C25.4012 16.8374 25.8114 17.0655 26.2429 16.6403C26.5626 16.3252 26.4392 15.8332 25.8061 14.8989C24.9993 13.7084 24.4225 13.6033 24.0939 13.9271ZM11.2113 20.3523C10.4777 20.3934 10.2239 20.4711 10.0574 20.7053C9.76866 21.1117 9.91833 21.5728 10.3977 21.7529C10.8259 21.9139 12.7385 21.7837 13.1608 21.5649C13.8879 21.1882 13.4816 20.2179 12.6191 20.2709C12.362 20.2867 11.7284 20.3233 11.2113 20.3523ZM20.1769 20.4665C19.8242 20.8138 19.8715 21.2395 20.2929 21.5116C20.8068 21.8435 23.2016 21.8974 23.4056 21.5817C23.6092 21.2668 23.5888 20.7521 23.3657 20.5766C23.262 20.495 22.5576 20.3819 21.8005 20.3255C20.6343 20.2387 20.3862 20.2602 20.1769 20.4665Z" fill="#111111"/>
<path d="M55.0781 23.9667H54.9014C54.7129 25.1972 54.0767 26.2189 52.9929 27.0315C51.9091 27.8442 50.4366 28.2505 48.5753 28.2505C47.1616 28.2505 45.8422 27.9835 44.617 27.4494C43.3919 26.9154 42.3199 26.126 41.401 25.0811C40.4821 24.0363 39.7635 22.7361 39.2452 21.1804C38.7268 19.6248 38.4677 17.8253 38.4677 15.7821C38.4677 13.7389 38.7386 11.9278 39.2805 10.3489C39.8224 8.77008 40.5764 7.44662 41.5423 6.37856C42.5319 5.3105 43.7099 4.49785 45.0765 3.94061C46.443 3.38336 47.9627 3.10474 49.6355 3.10474C51.8502 3.10474 53.7587 3.58072 55.3608 4.53268C56.9629 5.46142 58.2234 6.86615 59.1423 8.74686L54.76 11.2196C54.383 10.2677 53.794 9.46663 52.9929 8.81651C52.1919 8.14317 51.0727 7.8065 49.6355 7.8065C47.9627 7.8065 46.6315 8.28248 45.6419 9.23445C44.6524 10.1864 44.1576 11.684 44.1576 13.7272V17.628C44.1576 19.648 44.6524 21.1456 45.6419 22.1208C46.6315 23.0727 47.9627 23.5487 49.6355 23.5487C50.2952 23.5487 50.9196 23.4791 51.5086 23.3398C52.0976 23.1772 52.616 22.945 53.0636 22.6432C53.5113 22.3181 53.8529 21.935 54.0885 21.4939C54.3477 21.0527 54.4773 20.5303 54.4773 19.9266V18.7076H49.8829V14.2845H59.6018V27.8326H55.0781V23.9667ZM64.5408 27.8326V9.5479H69.7713V13.5183H69.948C70.0422 13.0075 70.2072 12.5199 70.4428 12.0555C70.6784 11.5679 70.9847 11.1384 71.3617 10.7669C71.7622 10.3954 72.2334 10.1051 72.7753 9.89618C73.3172 9.66399 73.9534 9.5479 74.6837 9.5479H75.6026V14.3542H74.295C72.7635 14.3542 71.6208 14.5515 70.8669 14.9462C70.1365 15.3409 69.7713 16.0723 69.7713 17.1404V27.8326H64.5408ZM86.3962 28.2505C84.9826 28.2505 83.7221 28.0299 82.6147 27.5888C81.5073 27.1244 80.5649 26.4859 79.7874 25.6732C79.0334 24.8373 78.4562 23.8273 78.0557 22.6432C77.6787 21.459 77.4902 20.1356 77.4902 18.6728C77.4902 17.2333 77.6787 15.933 78.0557 14.7721C78.4326 13.5879 78.9863 12.5779 79.7167 11.7421C80.4706 10.9062 81.3895 10.2677 82.4733 9.82652C83.5571 9.36215 84.7941 9.12996 86.1842 9.12996C87.7156 9.12996 89.0233 9.38537 90.1071 9.89618C91.2144 10.407 92.1097 11.0919 92.793 11.951C93.4998 12.8101 94.0064 13.8085 94.3127 14.9462C94.6425 16.0607 94.8074 17.2333 94.8074 18.4638V19.9963H82.8974V20.2749C82.8974 21.4823 83.2273 22.4458 83.887 23.1656C84.5467 23.8622 85.5834 24.2104 86.997 24.2104C88.0808 24.2104 88.9644 24.0015 89.6476 23.5835C90.3309 23.1424 90.967 22.62 91.556 22.0163L94.1713 25.2205C93.3467 26.1724 92.2629 26.9154 90.9199 27.4494C89.6005 27.9835 88.0926 28.2505 86.3962 28.2505ZM86.2902 12.9262C85.23 12.9262 84.3935 13.2745 83.781 13.971C83.1919 14.6444 82.8974 15.5499 82.8974 16.6876V16.9662H89.4002V16.6528C89.4002 15.5383 89.1411 14.6444 88.6227 13.971C88.1279 13.2745 87.3504 12.9262 86.2902 12.9262ZM106.241 28.2505C104.828 28.2505 103.567 28.0299 102.46 27.5888C101.352 27.1244 100.41 26.4859 99.6325 25.6732C98.8785 24.8373 98.3013 23.8273 97.9007 22.6432C97.5238 21.459 97.3353 20.1356 97.3353 18.6728C97.3353 17.2333 97.5238 15.933 97.9007 14.7721C98.2777 13.5879 98.8314 12.5779 99.5618 11.7421C100.316 10.9062 101.235 10.2677 102.318 9.82652C103.402 9.36215 104.639 9.12996 106.029 9.12996C107.561 9.12996 108.868 9.38537 109.952 9.89618C111.059 10.407 111.955 11.0919 112.638 11.951C113.345 12.8101 113.851 13.8085 114.158 14.9462C114.488 16.0607 114.653 17.2333 114.653 18.4638V19.9963H102.742V20.2749C102.742 21.4823 103.072 22.4458 103.732 23.1656C104.392 23.8622 105.428 24.2104 106.842 24.2104C107.926 24.2104 108.809 24.0015 109.493 23.5835C110.176 23.1424 110.812 22.62 111.401 22.0163L114.016 25.2205C113.192 26.1724 112.108 26.9154 110.765 27.4494C109.446 27.9835 107.938 28.2505 106.241 28.2505ZM106.135 12.9262C105.075 12.9262 104.239 13.2745 103.626 13.971C103.037 14.6444 102.742 15.5499 102.742 16.6876V16.9662H109.245V16.6528C109.245 15.5383 108.986 14.6444 108.468 13.971C107.973 13.2745 107.195 12.9262 106.135 12.9262ZM124.849 27.8326C123.035 27.8326 121.657 27.3798 120.714 26.4743C119.795 25.5687 119.336 24.2453 119.336 22.5039V13.5531H116.721V9.5479H118.028C118.735 9.5479 119.218 9.38537 119.477 9.06031C119.737 8.71203 119.866 8.22444 119.866 7.59754V4.60234H124.566V9.5479H128.242V13.5531H124.566V23.8273H127.959V27.8326H124.849ZM137.53 27.8326H132.158V3.52267H143.856C144.987 3.52267 146.012 3.70842 146.931 4.07992C147.85 4.45142 148.627 4.98544 149.263 5.682C149.923 6.35534 150.43 7.16799 150.783 8.11995C151.137 9.07192 151.314 10.1284 151.314 11.2893C151.314 12.9378 150.936 14.3774 150.182 15.608C149.452 16.8385 148.333 17.7325 146.825 18.2897L151.667 27.8326H145.694L141.382 18.9166H137.53V27.8326ZM143.185 14.4586C143.986 14.4586 144.61 14.2613 145.058 13.8666C145.529 13.4486 145.765 12.8449 145.765 12.0555V10.5231C145.765 9.73365 145.529 9.14157 145.058 8.74686C144.61 8.32892 143.986 8.11995 143.185 8.11995H137.53V14.4586H143.185ZM162.7 28.2505C161.333 28.2505 160.108 28.0299 159.024 27.5888C157.964 27.1476 157.057 26.5091 156.302 25.6732C155.573 24.8373 155.006 23.8273 154.606 22.6432C154.206 21.459 154.005 20.1356 154.005 18.6728C154.005 17.21 154.206 15.8866 154.606 14.7024C155.006 13.5183 155.573 12.5199 156.302 11.7072C157.057 10.8714 157.964 10.2328 159.024 9.79169C160.108 9.35054 161.333 9.12996 162.7 9.12996C164.067 9.12996 165.28 9.35054 166.34 9.79169C167.424 10.2328 168.33 10.8714 169.061 11.7072C169.815 12.5199 170.392 13.5183 170.792 14.7024C171.194 15.8866 171.393 17.21 171.393 18.6728C171.393 20.1356 171.194 21.459 170.792 22.6432C170.392 23.8273 169.815 24.8373 169.061 25.6732C168.33 26.5091 167.424 27.1476 166.34 27.5888C165.28 28.0299 164.067 28.2505 162.7 28.2505ZM162.7 24.1756C163.736 24.1756 164.538 23.8622 165.103 23.2353C165.668 22.6084 165.952 21.7144 165.952 20.5535V16.8269C165.952 15.666 165.668 14.7721 165.103 14.1452C164.538 13.5183 163.736 13.2048 162.7 13.2048C161.662 13.2048 160.862 13.5183 160.297 14.1452C159.731 14.7721 159.448 15.666 159.448 16.8269V20.5535C159.448 21.7144 159.731 22.6084 160.297 23.2353C160.862 23.8622 161.662 24.1756 162.7 24.1756ZM186.077 24.7677H185.9C185.735 25.2321 185.51 25.6732 185.228 26.0912C184.969 26.5091 184.627 26.8806 184.204 27.2056C183.779 27.5307 183.272 27.7861 182.683 27.9719C182.118 28.1576 181.458 28.2505 180.704 28.2505C178.795 28.2505 177.347 27.6352 176.358 26.4046C175.391 25.1508 174.908 23.363 174.908 21.0411V9.5479H180.14V20.5883C180.14 21.7028 180.339 22.5619 180.739 23.1656C181.141 23.7693 181.824 24.0711 182.79 24.0711C183.19 24.0711 183.591 24.0131 183.991 23.897C184.391 23.7809 184.744 23.6184 185.051 23.4094C185.358 23.1772 185.605 22.8986 185.794 22.5735C185.981 22.2485 186.077 21.8654 186.077 21.4242V9.5479H191.307V27.8326H186.077V24.7677ZM202.676 27.8326C200.863 27.8326 199.484 27.3798 198.541 26.4743C197.623 25.5687 197.162 24.2453 197.162 22.5039V13.5531H194.548V9.5479H195.856C196.563 9.5479 197.044 9.38537 197.304 9.06031C197.564 8.71203 197.692 8.22444 197.692 7.59754V4.60234H202.394V9.5479H206.069V13.5531H202.394V23.8273H205.786V27.8326H202.676ZM217.304 28.2505C215.89 28.2505 214.631 28.0299 213.522 27.5888C212.415 27.1244 211.472 26.4859 210.695 25.6732C209.941 24.8373 209.364 23.8273 208.964 22.6432C208.586 21.459 208.397 20.1356 208.397 18.6728C208.397 17.2333 208.586 15.933 208.964 14.7721C209.34 13.5879 209.894 12.5779 210.625 11.7421C211.379 10.9062 212.297 10.2677 213.382 9.82652C214.464 9.36215 215.701 9.12996 217.092 9.12996C218.624 9.12996 219.932 9.38537 221.015 9.89618C222.122 10.407 223.017 11.0919 223.701 11.951C224.408 12.8101 224.914 13.8085 225.221 14.9462C225.55 16.0607 225.715 17.2333 225.715 18.4638V19.9963H213.806V20.2749C213.806 21.4823 214.135 22.4458 214.795 23.1656C215.455 23.8622 216.491 24.2104 217.905 24.2104C218.989 24.2104 219.873 24.0015 220.555 23.5835C221.238 23.1424 221.876 22.62 222.465 22.0163L225.079 25.2205C224.254 26.1724 223.171 26.9154 221.827 27.4494C220.509 27.9835 219 28.2505 217.304 28.2505ZM217.198 12.9262C216.138 12.9262 215.301 13.2745 214.689 13.971C214.1 14.6444 213.806 15.5499 213.806 16.6876V16.9662H220.308V16.6528C220.308 15.5383 220.05 14.6444 219.53 13.971C219.036 13.2745 218.258 12.9262 217.198 12.9262Z" fill="#111111"/>
</svg>
